<?xml version="1.0" encoding="utf-8"?>
<!-- Generator: Adobe Illustrator 25.4.1, SVG Export Plug-In . SVG Version: 6.00 Build 0)  -->
<svg version="1.1" id="Layer_1" xmlns="http://www.w3.org/2000/svg" xmlns:xlink="http://www.w3.org/1999/xlink" x="0px" y="0px"
	 viewBox="0 0 40 40" style="enable-background:new 0 0 40 40;" xml:space="preserve">
<style type="text/css">
	.st0{fill:none;stroke:#0E2042;stroke-width:1.5;stroke-linecap:round;stroke-linejoin:round;}
</style>
<path class="st0" d="M32.1,35c0-4.9-1.9-10.6-6.4-13.1c-0.9-0.5-2-0.9-3.1-1.1c0,0-2.3-0.7-6.1,0c-1.1,0.2-2.2,0.6-3.1,1.1
	C8.9,24.4,7,30.1,7,35"/>
<path class="st0" d="M19.8,5.8c3.3,0,6,2.7,6,6c0,3.3-2.7,6-6,6c0,0,0,0,0,0c-3.3,0-6-2.7-6-6S16.5,5.8,19.8,5.8z"/>
</svg>
