<svg width="82" height="21" viewBox="0 0 82 21" fill="none" xmlns="http://www.w3.org/2000/svg">
<path d="M31.0773 18.6394V19.3335C31.0773 19.7847 30.7187 20.1433 30.2675 20.1433H16.7896C16.3385 20.1433 15.9798 19.7847 15.9798 19.3335V18.6394C15.9798 18.1882 16.3385 17.8295 16.7896 17.8295H30.2675C30.7071 17.818 31.0773 18.1882 31.0773 18.6394ZM30.2675 8.95614H16.7896C16.3385 8.95614 15.9798 9.31478 15.9798 9.76597V10.4601C15.9798 10.9113 16.3385 11.2699 16.7896 11.2699H30.2675C30.7187 11.2699 31.0773 10.9113 31.0773 10.4601V9.76597C31.0773 9.32635 30.7187 8.95614 30.2675 8.95614ZM30.2559 0.10588H16.7781C16.3269 0.10588 15.9682 0.464518 15.9682 0.915707V1.60985C15.9682 2.06103 16.3269 2.41967 16.7781 2.41967H30.2559C30.7071 2.41967 31.0658 2.06103 31.0658 1.60985V0.915707C31.0658 0.464518 30.7071 0.10588 30.2559 0.10588Z" fill="#F2F4F8"/>
<path d="M63.745 20.13C63.4442 20.13 63.155 20.0143 62.9236 19.7829L54.2469 10.7591C53.9114 10.4236 53.8188 9.92618 53.9924 9.48656C54.1659 9.04694 54.594 8.76928 55.0567 8.75771C58.1572 8.74614 59.4414 8.02887 59.9851 7.42728C60.39 6.97609 60.552 6.38607 60.471 5.63409C60.2975 3.78305 58.6084 2.33693 56.6301 2.33693H50.3019C49.6656 2.33693 49.145 1.81633 49.145 1.16847C49.145 0.520604 49.6656 0 50.3019 0H56.6301C59.7884 0 62.4956 2.38321 62.7732 5.42585C62.9005 6.83726 62.5303 8.07514 61.6973 9.01223C60.9222 9.86833 59.8 10.4699 58.296 10.7939C58.0299 10.8517 57.9258 11.1756 58.1109 11.3723L64.5433 18.1286C64.9945 18.5798 64.9945 19.3202 64.5433 19.7829C64.335 20.0143 64.0342 20.13 63.745 20.13ZM7.48512 0.0115692H1.1569C0.520604 0.0115692 0 0.543742 0 1.1916V18.9615C0 19.6094 0.520604 20.1416 1.1569 20.1416C1.79319 20.1416 2.31379 19.6094 2.31379 18.9615V2.71871C2.31379 2.52204 2.47576 2.36007 2.66086 2.36007H7.47355C9.45185 2.36007 11.1409 3.81776 11.3145 5.68036C11.3839 6.44392 11.2219 7.03393 10.8286 7.48512C10.2964 8.08671 9.00066 8.80399 5.90017 8.82713C5.26388 8.82713 4.74328 9.3593 4.75485 10.0072C4.75485 10.655 5.27545 11.1756 5.91174 11.1756C9.12792 11.1641 11.2913 10.4699 12.5408 9.0585C13.3737 8.12142 13.7555 6.87197 13.6167 5.44898C13.3506 2.40634 10.655 0.0115692 7.48512 0.0115692ZM80.8324 0.0115692C80.1961 0.0115692 79.6755 0.55531 79.6755 1.21474V7.46199C79.6755 8.15613 79.6871 8.09828 79.6755 8.60732C79.6639 8.96595 79.4441 9.11635 79.178 9.17419C77.408 9.31302 74.5157 9.52126 72.6531 8.85026C70.0617 7.91318 69.865 5.34486 69.865 1.5271V1.22631C69.865 0.55531 69.3444 0.0231385 68.7081 0.0231385C68.0718 0.0231385 67.5512 0.566879 67.5512 1.22631V1.5271C67.5512 4.91681 67.5396 9.56754 71.8896 11.1294C73.0812 11.5574 74.5967 11.7078 76.2395 11.7078C77.2113 11.7078 78.2409 11.65 79.259 11.5805C79.4672 11.569 79.6292 11.7309 79.6292 11.9392C79.6292 12.5408 79.6292 13.2696 79.6292 14.1604C79.6292 14.9471 79.3168 15.6297 78.7037 16.2197C77.5931 17.284 75.5801 17.8741 73.6828 17.689C71.6698 17.4923 70.3046 16.5205 69.3907 14.6116C69.1014 14.01 68.4073 13.7786 67.8404 14.0679C67.2736 14.3687 67.0422 15.0859 67.3198 15.6875C68.5924 18.3368 70.6633 19.8176 73.4745 20.0953C73.7869 20.13 74.0992 20.1416 74.4116 20.1416C76.6676 20.1416 78.8541 19.3549 80.2771 18.0129C81.3761 16.9601 81.9661 15.6412 81.9661 14.172C81.9661 11.0368 81.9777 9.93775 81.9893 9.10478C81.9893 8.59575 82.0008 8.17926 82.0008 7.48512V1.23788C81.9893 0.543741 81.4687 0.0115692 80.8324 0.0115692ZM42.3771 11.5227C42.1805 11.326 42.2846 10.9905 42.5622 10.9327C44.0662 10.5972 45.1884 9.99559 45.9635 9.12792C46.7965 8.17926 47.1783 6.92981 47.0394 5.49526C46.7502 2.41792 44.0546 0.0115692 40.8963 0.0115692H34.5681C33.9318 0.0115692 33.4112 0.543742 33.4112 1.1916V18.95C33.4112 19.6094 33.9318 20.13 34.5681 20.13C35.2044 20.13 35.725 19.5978 35.725 18.95V2.74185C35.725 2.54517 35.8869 2.38321 36.072 2.38321H40.8847C42.863 2.38321 44.5521 3.85247 44.7256 5.72664C44.795 6.50176 44.6331 7.09178 44.2397 7.54297C43.7076 8.14456 42.4118 8.8734 39.3114 8.88497C38.8486 8.88497 38.4205 9.17419 38.247 9.61382C38.0735 10.0534 38.166 10.5625 38.5015 10.898L47.1783 19.7714C47.6294 20.2341 48.3583 20.2341 48.8095 19.7714C49.2607 19.3086 49.2607 18.5566 48.8095 18.0939L42.3771 11.5227Z" fill="#F2F4F8"/>
</svg>
